HIERARCHY
ROOT Hips
{
	OFFSET	0.00	0.00	0.00
	CHANNELS 6 Xposition Yposition Zposition Zrotation Xrotation Yrotation
	JOINT LeftUpLeg
	{
		OFFSET	 0.126116	-0.065224	 0.014019
		CHANNELS 3 Zrotation Xrotation Yrotation
		JOINT LeftLeg
		{
			OFFSET	 0.000000	 0.569914	 0.000000
			CHANNELS 3 Zrotation Xrotation Yrotation
			JOINT LeftFoot
			{
				OFFSET	 0.000000	 0.544423	 0.000000
				CHANNELS 3 Zrotation Xrotation Yrotation
				JOINT LeftToeBase
				{
					OFFSET	 0.000000	 0.207117	 0.000000
					CHANNELS 3 Zrotation Xrotation Yrotation
					End Site
					{
						OFFSET	 0.000000	 0.207117	 0.000000
					}
				}
			}
		}
	}
	JOINT RightUpLeg
	{
		OFFSET	-0.124023	-0.065224	 0.008373
		CHANNELS 3 Zrotation Xrotation Yrotation
		JOINT RightLeg
		{
			OFFSET	 0.000000	 0.570047	 0.000000
			CHANNELS 3 Zrotation Xrotation Yrotation
			JOINT RightFoot
			{
				OFFSET	 0.000000	 0.544354	 0.000000
				CHANNELS 3 Zrotation Xrotation Yrotation
				JOINT RightToeBase
				{
					OFFSET	 0.000000	 0.207540	 0.000000
					CHANNELS 3 Zrotation Xrotation Yrotation
					End Site
					{
						OFFSET	 0.000000	 0.207540	 0.000000
					}
				}
			}
		}
	}
	JOINT Spine
	{
		OFFSET	 0.000184	 0.117403	 0.007763
		CHANNELS 3 Zrotation Xrotation Yrotation
		JOINT Spine1
		{
			OFFSET	 0.000000	 0.137269	 0.000000
			CHANNELS 3 Zrotation Xrotation Yrotation
			JOINT Spine2
			{
				OFFSET	 0.000000	 0.156879	 0.000000
				CHANNELS 3 Zrotation Xrotation Yrotation
				JOINT LeftShoulder
				{
					OFFSET	 0.080501	 0.160143	 0.002496
					CHANNELS 3 Zrotation Xrotation Yrotation
					JOINT LeftArm
					{
						OFFSET	 0.000000	 0.164363	 0.000000
						CHANNELS 3 Zrotation Xrotation Yrotation
						JOINT LeftForeArm
						{
							OFFSET	 0.000000	 0.364576	 0.000000
							CHANNELS 3 Zrotation Xrotation Yrotation
							JOINT LeftHand
							{
								OFFSET	 0.000000	 0.360812	 0.000000
								CHANNELS 3 Zrotation Xrotation Yrotation
								JOINT LeftHandIndex1
								{
									OFFSET	 0.000000	 0.086006	 0.000000
									CHANNELS 3 Zrotation Xrotation Yrotation
									JOINT LeftHandIndex2
									{
										OFFSET	 0.000000	 0.047237	 0.000000
										CHANNELS 3 Zrotation Xrotation Yrotation
										JOINT LeftHandIndex3
										{
											OFFSET	-0.004284	 0.038165	 0.000551
											CHANNELS 3 Zrotation Xrotation Yrotation
											End Site
											{
												OFFSET	-0.004284	 0.038165	 0.000551
											}
										}
									}
								}
							}
						}
					}
				}
				JOINT Neck
				{
					OFFSET	 0.000000	 0.176489	 0.000000
					CHANNELS 3 Zrotation Xrotation Yrotation
					JOINT Head
					{
						OFFSET	 0.000000	 0.077941	 0.001747
						CHANNELS 3 Zrotation Xrotation Yrotation
						End Site
						{
							OFFSET	 0.000000	 0.077941	 0.001747
						}
					}
				}
				JOINT RightShoulder
				{
					OFFSET	-0.080363	 0.159706	-0.000306
					CHANNELS 3 Zrotation Xrotation Yrotation
					JOINT RightArm
					{
						OFFSET	 0.000000	 0.164196	 0.000000
						CHANNELS 3 Zrotation Xrotation Yrotation
						JOINT RightForeArm
						{
							OFFSET	 0.000000	 0.365611	 0.000000
							CHANNELS 3 Zrotation Xrotation Yrotation
							JOINT RightHand
							{
								OFFSET	 0.000000	 0.360648	 0.000000
								CHANNELS 3 Zrotation Xrotation Yrotation
								JOINT RightHandIndex1
								{
									OFFSET	 0.000000	 0.069977	 0.000000
									CHANNELS 3 Zrotation Xrotation Yrotation
									JOINT RightHandIndex2
									{
										OFFSET	 0.000000	 0.052305	 0.000000
										CHANNELS 3 Zrotation Xrotation Yrotation
										JOINT RightHandIndex3
										{
											OFFSET	 0.009002	 0.042196	 0.000782
											CHANNELS 3 Zrotation Xrotation Yrotation
											End Site
											{
												OFFSET	 0.009002	 0.042196	 0.000782
											}
										}
									}
								}
							}
						}
					}
				}
			}
		}
	}
}
MOTION
Frames:    7
Frame Time: 0.03333334
-0.009750	 1.268193	-0.023941	 1.357816	 1.487274	 177.242700	-175.086900	 4.758385	-30.666880	 3.756800	-18.360150	 4.099967	-2.259404	 71.183800	 3.689965	 1.331492	 28.938720	-2.729976	 176.839800	 4.738759	 31.164840	-5.004195	-16.054430	-7.252080	 0.200637	 70.473330	 0.670065	-1.324309	 28.837610	 2.024809	-0.855957	 2.560383	 4.233125	-1.387058	 1.981158	-0.248224	-1.223513	-1.486688	-0.340126	-113.447000	 5.391568	 93.101960	 22.202710	 53.116260	 23.462550	 23.640660	-0.252038	-41.537710	 3.517549	-8.038605	-13.849610	-6.580301	 5.266122	 0.000000	 0.000000	 0.000000	 0.000000	 0.000000	 0.000000	 0.000000	 4.687828	-0.420853	-0.565871	 4.417653	 2.283217	 0.868532	 114.143500	-3.953725	-88.777120	-57.639840	-23.213890	 53.778320	-92.688660	-1.537052	 39.365090	-28.809850	 0.446028	-18.132230	-0.359023	 10.562040	 0.744377	 11.977540	 9.297237	-2.091755	-8.358937	 3.140113	 0.104978
-0.009121	 1.268248	-0.023956	 1.242226	 1.497282	 179.018600	-175.341400	 5.044786	-29.106290	 3.762830	-18.387550	 5.541173	 1.918994	 71.153530	-0.752813	 1.331492	 28.938720	-2.729976	 176.606500	 4.544191	 32.892420	-5.042106	-16.169440	-5.911181	 3.970293	 70.592610	-3.370531	-1.323753	 28.829460	 2.044629	-1.412172	 2.221372	 15.979640	-1.359111	 2.005650	-0.579881	-1.208052	-1.686908	-0.272697	-113.442700	 5.279622	 93.000800	 27.390780	 53.046480	 19.858760	 21.495090	-0.256976	-36.627570	 1.304261	-8.850096	-14.777370	-6.580301	 5.266122	 0.000000	 0.000000	 0.000000	 0.000000	 0.000000	 0.000000	 0.000000	 4.584341	-0.475371	-0.430694	 3.818060	 2.257643	 1.287858	 114.170400	-4.127882	-88.636600	-58.716770	-9.055888	 58.299190	-87.630230	-1.619524	 34.619380	-23.932480	-26.025860	-24.656240	-0.359050	 10.562850	 0.744379	 11.977540	 9.298045	-2.091923	-8.358947	 3.140528	 0.104942
-0.005840	 1.268703	-0.021147	 0.978479	 1.443992	-179.340700	-175.492600	 5.615149	-27.662510	 3.719833	-18.191650	 6.533106	 4.821442	 70.765060	-3.782768	 1.331492	 28.938720	-2.729976	 176.286600	 4.682584	 34.492630	-5.029640	-16.131620	-4.485075	 7.518086	 70.447620	-7.480787	-1.321688	 28.799610	 2.102457	-1.820540	 1.783416	 27.451280	-1.056164	 2.094430	-1.119175	-1.150125	-1.955977	 0.045933	-113.436100	 5.216932	 92.883000	 40.764630	 44.093880	 10.425330	 18.052020	-0.261968	-28.862580	-8.918159	-0.432860	-16.903780	-6.580301	 5.266122	 0.000000	 0.000000	 0.000000	 0.000000	 0.000000	 0.000000	 0.000000	 4.370622	-0.505379	-0.045487	 2.346460	 2.213977	 2.117826	 114.215800	-4.426333	-88.409480	-52.843820	 33.421740	 48.763690	-85.837920	-1.746976	 26.875560	-77.218280	-71.275640	-50.265180	-0.359136	 10.565250	 0.744396	 11.977560	 9.300412	-2.092426	-8.358972	 3.141733	 0.104849
-0.003254	 1.269107	-0.016414	 0.757239	 1.465555	 179.169800	-175.446400	 5.185299	-28.953590	 3.569586	-17.503520	 4.730418	-0.297095	 70.437020	 1.592519	 1.331492	 28.938720	-2.729976	 176.406500	 5.230231	 32.951870	-5.100962	-16.347650	-5.986688	 3.204647	 70.558550	-3.013302	-1.315506	 28.712690	 2.252690	-2.150092	 1.635016	 35.208130	-0.814594	 2.017484	-1.180583	-1.051895	-1.636512	 0.624353	-113.435200	 5.317275	 92.912870	 22.801320	 47.842510	 24.383680	 13.767860	-0.264698	-19.305370	-4.721367	-3.245936	-18.566530	-6.580301	 5.266122	 0.000000	 0.000000	 0.000000	 0.000000	 0.000000	 0.000000	 0.000000	 4.678925	-0.507501	 0.146720	 1.816160	 2.356827	 2.725221	 114.254400	-4.676287	-88.218920	-56.403340	 9.671165	 54.176220	-83.475890	-1.902699	 17.360020	-24.152240	-40.664660	-10.994610	-0.359369	 10.571580	 0.744452	 11.977640	 9.306655	-2.093765	-8.359031	 3.144901	 0.104615
 0.000641	 1.269313	-0.011072	 0.547860	 1.511458	 177.680100	-175.374300	 4.744947	-30.236630	 3.424121	-16.832130	 2.840288	-5.491486	 69.908490	 7.032617	 1.331492	 28.938720	-2.729976	 176.613400	 5.780746	 31.407670	-5.183350	-16.596610	-7.519726	-1.289263	 70.580510	 1.594268	-1.308943	 28.624130	 2.406119	-2.340591	 1.655067	 37.735620	-0.757859	 2.159327	-1.068019	-0.911400	-1.390145	 1.103022	-113.435200	 5.424096	 92.957850	 5.955143	 50.150790	 37.478660	 8.997038	-0.251321	-9.307796	-1.429209	-6.390469	-19.248840	-6.580301	 5.266122	 0.000000	 0.000000	 0.000000	 0.000000	 0.000000	 0.000000	 0.000000	 5.010525	-0.495473	 0.262119	 1.627291	 2.450249	 3.145076	 114.286300	-4.877530	-88.063360	-65.820140	-19.814810	 56.676410	-65.498010	-1.888613	 7.998271	-20.605960	-2.788084	-4.678349	-0.369464	 10.861170	 0.746343	 11.981500	 9.590089	-2.154731	-8.362077	 3.301011	 0.094590
 0.009896	 1.268892	-0.005296	 0.363443	 1.770427	 178.732900	-175.260100	 4.858325	-29.210300	 3.390462	-16.676060	 3.395899	-4.264779	 69.463570	 5.440566	 1.331492	 28.938720	-2.729976	 176.685800	 5.847585	 32.357670	-5.249546	-16.796180	-7.529769	-1.665697	 70.791070	 1.723659	-1.299520	 28.503290	 2.628653	-2.378146	 1.971462	 34.753740	-0.959940	 2.692400	-0.587021	-1.023152	-1.264580	 0.575876	-113.438300	 5.500254	 93.030930	 25.259550	 48.539950	 19.598720	 6.225670	-0.245647	 3.236021	-6.855887	 0.717494	-16.544090	-6.580301	 5.266122	 0.000000	 0.000000	 0.000000	 0.000000	 0.000000	 0.000000	 0.000000	 5.264703	-0.357810	-0.145523	 3.983292	 1.840516	 2.102790	 114.272400	-4.778362	-88.113820	-69.975590	 5.719832	 20.598680	-109.132900	-2.070941	-6.235475	-3.641780	-1.489178	-18.136260	-0.504697	 14.685780	 0.776279	 12.062030	 13.332250	-2.967705	-8.399901	 5.365108	-0.037018
 0.016833	 1.268179	 0.000123	 0.054880	 1.962590	 179.887900	-175.411000	 5.284268	-28.013270	 3.371618	-16.588620	 4.301523	-1.931323	 69.136690	 2.877772	 1.331492	 28.938720	-2.729976	 176.480900	 6.126266	 33.647900	-5.436657	-17.357770	-7.364141	-1.498850	 71.136650	 1.254035	-1.293397	 28.429520	 2.794073	-2.103306	 2.567844	 25.091070	-1.216792	 3.209276	-0.123868	-1.161761	-1.146470	 0.019844	-113.440500	 5.392535	 93.018040	 38.073070	 45.886340	 8.539914	 11.843920	-0.250414	 15.587430	-10.199180	 3.851336	-14.212000	-6.580301	 5.266122	 0.000000	 0.000000	 0.000000	 0.000000	 0.000000	 0.000000	 0.000000	 5.111938	-0.256719	-0.459422	 5.097814	 1.268762	 1.247816	 114.251800	-4.635190	-88.198200	-55.796330	 35.861540	-18.629620	-108.511300	-1.863889	-18.523240	-6.091175	-4.567396	-33.570610	-0.663566	 19.012430	 0.822365	 12.221990	 17.563880	-3.912015	-8.435230	 7.571680	-0.176783
